# This file uses meters as units for non-parametric coordinates.

mtllib baul.mtl
v -529.844391 2.182410 1252.888965
v -529.844391 202.182410 1252.888933
v -529.844391 2.182368 996.786091
v -529.844391 202.182368 996.786058
v -329.844391 2.182410 1252.888965
v -329.844391 202.182410 1252.888933
v -329.844391 2.182368 996.786091
v -329.844391 202.182368 996.786058
v -529.844391 151.564849 1252.888941
v -529.844391 160.101614 1252.888940
v -529.844391 160.101573 996.786065
v -529.844391 151.564808 996.786066
v -329.844391 160.101573 996.786065
v -329.844391 151.564808 996.786066
v -329.844391 160.101614 1252.888940
v -329.844391 151.564849 1252.888941
v -526.386290 151.712453 1248.460786
v -526.386290 159.954009 1248.460785
v -526.386290 159.953968 1001.214205
v -526.386290 151.712413 1001.214206
v -333.302491 159.953968 1001.214205
v -333.302491 151.712413 1001.214206
v -333.302491 159.954009 1248.460785
v -333.302491 151.712453 1248.460786
vt 0.125000 0.500000
vt 0.375000 0.250000
vt 0.514610 0.500000
vt 0.514610 0.750000
vt 0.597944 1.000000
vt 0.597944 0.000000
vt 0.514610 0.250000
vt 0.625000 0.750000
vt 0.375000 1.000000
vt 0.597944 0.500000
vt 0.597944 0.750000
vt 0.625000 0.000000
vt 0.875000 0.750000
vt 0.514610 0.000000
vt 0.597944 0.250000
vt 0.514610 1.000000
vt 0.375000 0.750000
vt 0.625000 1.000000
vt 0.514610 0.750000
vt 0.125000 0.750000
vt 0.375000 0.000000
vt 0.514610 0.250000
vt 0.514610 0.500000
vt 0.597944 1.000000
vt 0.625000 0.500000
vt 0.597944 0.000000
vt 0.597944 0.750000
vt 0.625000 0.250000
vt 0.875000 0.500000
vt 0.597944 0.250000
vt 0.597944 0.500000
vt 0.514610 1.000000
vt 0.375000 0.500000
vt 0.514610 0.000000
vn -1.000000 0.000000 -0.000000
vn -1.000000 0.000000 -0.000000
vn -1.000000 0.000000 -0.000000
vn -1.000000 0.000000 -0.000000
vn 0.000000 -0.000000 -1.000000
vn 0.000000 -0.000000 -1.000000
vn 0.000000 -0.000000 -1.000000
vn 0.000000 -0.000000 -1.000000
vn 1.000000 0.000000 0.000000
vn 1.000000 0.000000 0.000000
vn 1.000000 0.000000 0.000000
vn 1.000000 0.000000 0.000000
vn 0.000000 0.000000 1.000000
vn 0.000000 0.000000 1.000000
vn 0.000000 0.000000 1.000000
vn 0.000000 0.000000 1.000000
vn 0.000000 -1.000000 0.000000
vn 0.000000 -1.000000 0.000000
vn 0.000000 -1.000000 0.000000
vn 0.000000 -1.000000 0.000000
vn 0.000000 1.000000 -0.000000
vn 0.000000 1.000000 -0.000000
vn 0.000000 1.000000 -0.000000
vn 0.000000 1.000000 -0.000000
vn 0.000000 0.000000 1.000000
vn 0.000000 0.000000 1.000000
vn 0.000000 0.000000 1.000000
vn 0.000000 0.000000 1.000000
vn -0.042645 -0.999090 0.000000
vn -0.042645 -0.999090 0.000000
vn -0.042645 -0.999090 0.000000
vn -0.042645 -0.999090 0.000000
vn 1.000000 0.000000 0.000000
vn 1.000000 0.000000 0.000000
vn 1.000000 0.000000 0.000000
vn 1.000000 0.000000 0.000000
vn 0.000000 0.999445 0.033315
vn 0.000000 0.999445 0.033315
vn 0.000000 0.999445 0.033315
vn 0.000000 0.999445 0.033315
vn 0.000000 -0.000000 -1.000000
vn 0.000000 -0.000000 -1.000000
vn 0.000000 -0.000000 -1.000000
vn 0.000000 -0.000000 -1.000000
vn 0.042644 0.999090 -0.000000
vn 0.042644 0.999090 -0.000000
vn 0.042644 0.999090 -0.000000
vn 0.042644 0.999090 -0.000000
vn -1.000000 0.000000 -0.000000
vn -1.000000 0.000000 -0.000000
vn -1.000000 0.000000 -0.000000
vn -1.000000 0.000000 -0.000000
vn 0.000000 0.999445 -0.033315
vn 0.000000 0.999445 -0.033315
vn 0.000000 0.999445 -0.033315
vn 0.000000 0.999445 -0.033315
vn 0.000000 0.000000 1.000000
vn 0.000000 0.000000 1.000000
vn 0.000000 0.000000 1.000000
vn 0.000000 0.000000 1.000000
vn 1.000000 0.000000 0.000000
vn 1.000000 0.000000 0.000000
vn 1.000000 0.000000 0.000000
vn 1.000000 0.000000 0.000000
vn 0.000000 -0.000000 -1.000000
vn 0.000000 -0.000000 -1.000000
vn 0.000000 -0.000000 -1.000000
vn 0.000000 -0.000000 -1.000000
vn -1.000000 0.000000 -0.000000
vn -1.000000 0.000000 -0.000000
vn -1.000000 0.000000 -0.000000
vn -1.000000 0.000000 -0.000000
vn 0.000000 -0.999445 -0.033315
vn 0.000000 -0.999445 -0.033315
vn 0.000000 -0.999445 -0.033315
vn 0.000000 -0.999445 -0.033315
vn 0.042645 -0.999090 0.000000
vn 0.042645 -0.999090 0.000000
vn 0.042645 -0.999090 0.000000
vn 0.042645 -0.999090 0.000000
vn 0.000000 -0.999445 0.033315
vn 0.000000 -0.999445 0.033315
vn 0.000000 -0.999445 0.033315
vn 0.000000 -0.999445 0.033315
vn -0.042644 0.999090 -0.000000
vn -0.042644 0.999090 -0.000000
vn -0.042644 0.999090 -0.000000
vn -0.042644 0.999090 -0.000000
s off
usemtl lambert2SG
f 10/6/1 2/12/2 4/28/3 11/30/4
f 11/30/5 4/28/6 8/25/7 13/10/8
f 13/10/9 8/25/10 6/8/11 15/27/12
f 15/27/13 6/8/14 2/18/15 10/24/16
f 3/1/17 7/33/18 5/17/19 1/20/20
f 8/25/21 4/29/22 2/13/23 6/8/24
f 5/17/25 16/19/26 9/16/27 1/9/28
f 10/6/29 11/30/30 19/15/31 18/26/32
f 7/33/33 14/3/34 16/19/35 5/17/36
f 9/16/37 16/19/38 24/4/39 17/32/40
f 3/2/41 12/22/42 14/3/43 7/33/44
f 16/19/45 14/3/46 22/23/47 24/4/48
f 1/21/49 9/14/50 12/22/51 3/2/52
f 14/3/53 12/22/54 20/7/55 22/23/56
f 24/4/57 23/11/58 18/5/59 17/32/60
f 22/23/61 21/31/62 23/11/63 24/4/64
f 20/7/65 19/15/66 21/31/67 22/23/68
f 17/34/69 18/26/70 19/15/71 20/7/72
f 11/30/73 13/10/74 21/31/75 19/15/76
f 13/10/77 15/27/78 23/11/79 21/31/80
f 15/27/81 10/24/82 18/5/83 23/11/84
f 12/22/85 9/14/86 17/34/87 20/7/88
